<svg width="319" height="84" xmlns="http://www.w3.org/2000/svg" xmlns:xlink="http://www.w3.org/1999/xlink" overflow="hidden"><defs><clipPath id="clip0"><rect x="401" y="289" width="319" height="84"/></clipPath><clipPath id="clip1"><rect x="402" y="290" width="318" height="83"/></clipPath><clipPath id="clip2"><rect x="402" y="290" width="318" height="83"/></clipPath></defs><g clip-path="url(#clip0)" transform="translate(-401 -289)"><g clip-path="url(#clip1)"><g clip-path="url(#clip2)"><path d="M0 0 0-13.6177 6.94228-13.6177C13.0163-13.7265 15.8574-12.4155 15.8574-6.83756 15.8574-0.821463 11.8095 0 5.46862 0ZM0 5.08534 7.0536 5.08534C10.8254 5.08534 14.2724 6.50816 14.2724 11.32 14.2724 16.4608 10.772 17.2268 6.67083 17.3361L0 17.3361ZM-6.07405 21.0007C-6.07405 22.1475-5.74465 22.4769-4.59582 22.4769L8.75041 22.4769C14.8199 22.4769 20.6179 18.3757 20.6179 11.7028 20.6179 7.60158 18.1017 3.77385 14.3258 2.6784 19.1397 1.42028 22.1495-2.40695 22.1495-7.27422 22.1495-12.7423 18.6496-18.8143 9.73454-18.8143L-4.59582-18.8143C-5.74465-18.8143-6.07405-18.4849-6.07405-17.3382Z" fill="#332D2B" fill-rule="nonzero" fill-opacity="1" transform="matrix(1 0 0 -1.00229 412.496 319.97)"/><path d="M0 0-7.00023 0-7.00023-12.1415-0.329398-12.1415C4.97402-12.1415 7.98435-10.4447 7.98435-5.96069 7.98435-1.47619 5.57537 0 0 0M8.86173-36.1505 7.87303-26.9614C7.0536-17.9929 6.67083-17.3361 0.984129-17.3361L-6.94685-17.3361-6.94685-36.0945-13.0743-36.0945-13.0743 3.71844C-13.0743 4.86727-12.6915 5.25004-11.5427 5.25004L0.490031 5.25004C8.42101 5.25004 14.2724 1.42282 14.2724-6.0161 14.2724-10.3359 11.32-13.3437 7.38351-14.4391 11.8675-15.5326 13.2344-18.8677 13.7244-23.4076Z" fill="#332D2B" fill-rule="nonzero" fill-opacity="1" transform="matrix(1 0 0 -1.00229 452.808 302.594)"/><path d="M0 0C-0.222649 0.710138-0.71268 1.14679-1.42485 1.14679L-5.52607 1.14679C-6.1808 1.14679-6.6754 0.710138-6.89348 0L-21.9314-40.1983-15.4792-40.1983-11.596-29.5884-4.26591-9.13318-3.44648-6.50816-2.62756-9.13318 4.70257-29.5884 8.58571-40.1983 15.038-40.1983Z" fill="#332D2B" fill-rule="nonzero" fill-opacity="1" transform="matrix(1 0 0 -1.00229 486.389 298.537)"/><path d="M311.538 353.752 305.464 353.752 305.464 395.262 311.538 395.262Z" fill="#332D2B" fill-rule="nonzero" fill-opacity="1" transform="matrix(1 0 0 -1.00229 199.657 693.388)"/><path d="M0 0 1.80813-4.04784 1.64343 0.162666 1.64343 28.6556 7.71291 28.6556 7.71291-11.1014C7.71291-12.2503 7.43688-12.5802 6.29212-12.5802L1.91488-12.5802C0.877379-12.5802 0.436656-12.0881 0.164699-11.3221L-15.6393 16.078-17.4429 20.1258-17.2822 15.9133-17.2822-12.689-23.3522-12.689-23.3522 27.1794C-23.3522 28.3283-23.0762 28.6556-21.9314 28.6556L-17.7189 28.6556C-16.6814 28.6556-16.2407 28.1636-15.9687 27.4001Z" fill="#332D2B" fill-rule="nonzero" fill-opacity="1" transform="matrix(1 0 0 -1.00229 539.872 326.109)"/><path d="M0 0C0 7.49432 6.94685 11.7048 13.3996 11.7048 16.8461 11.7048 19.251 11.104 21.7667 9.73657 24.7771 8.14905 26.91 5.08788 26.9634 0.329398L20.6179 0.329398C20.2926 5.19667 17.2289 6.45479 13.6756 6.45479 9.46309 6.45479 6.3455 4.15713 6.3455 0.603389 6.3455-4.4845 10.4472-5.41271 16.5167-7.60158 22.2034-9.67862 27.6181-11.5935 27.6761-19.0858 27.6761-23.1875 26.0326-26.5786 23.2988-28.493 20.1812-30.7886 17.1175-31.2807 12.8516-31.2807 4.26591-31.2807-0.984129-26.632-1.0375-18.2643L5.46862-18.2643C5.36137-24.6637 8.80836-26.0306 13.3457-26.0306 17.2827-26.0306 21.3306-24.0069 21.3306-19.4691 21.3306-15.038 18.1596-14.1631 10.9947-11.5381 5.63332-9.73454 0-7.2183 0 0" fill="#332D2B" fill-rule="nonzero" fill-opacity="1" transform="matrix(1 0 0 -1.00229 562.802 308.296)"/><path d="M0 0 1.80356-4.04784 1.63886 0.162666 1.63886 28.6556 7.70833 28.6556 7.70833-11.1014C7.70833-12.2503 7.43688-12.5802 6.28805-12.5802L1.91488-12.5802C0.872804-12.5802 0.436656-12.0881 0.164699-11.3221L-15.6439 16.078-17.4474 20.1258-17.2822 15.9133-17.2822-12.689-23.3522-12.689-23.3522 27.1794C-23.3522 28.3283-23.0803 28.6556-21.9314 28.6556L-17.7189 28.6556C-16.6814 28.6556-16.2447 28.1636-15.9687 27.4001Z" fill="#332D2B" fill-rule="nonzero" fill-opacity="1" transform="matrix(1 0 0 -1.00229 647.163 326.109)"/><path d="M0 0C0 7.49432 6.94685 11.7048 13.3996 11.7048 16.8461 11.7048 19.251 11.104 21.7667 9.73657 24.7771 8.14905 26.91 5.08788 26.9634 0.329398L20.6179 0.329398C20.2926 5.19667 17.2289 6.45479 13.6756 6.45479 9.46309 6.45479 6.3455 4.15713 6.3455 0.603389 6.3455-4.4845 10.4472-5.41271 16.5167-7.60158 22.2034-9.67862 27.6181-11.5935 27.6761-19.0858 27.6761-23.1875 26.0326-26.5786 23.2988-28.493 20.1812-30.7886 17.1175-31.2807 12.8516-31.2807 4.26591-31.2807-0.984129-26.632-1.0375-18.2643L5.46862-18.2643C5.36137-24.6637 8.80836-26.0306 13.3457-26.0306 17.2827-26.0306 21.3306-24.0069 21.3306-19.4691 21.3306-15.038 18.1596-14.1631 10.9947-11.5381 5.63332-9.73454 0-7.2183 0 0" fill="#332D2B" fill-rule="nonzero" fill-opacity="1" transform="matrix(1 0 0 -1.00229 660.344 308.296)"/><path d="M419.171 388.519 395.805 388.519 395.805 395.097 419.171 395.097Z" fill="#332D2B" fill-rule="nonzero" fill-opacity="1" transform="matrix(1 0 0 -1.00229 199.657 693.388)"/><path d="M419.171 371.136 395.805 371.136 395.805 377.714 419.171 377.714Z" fill="#332D2B" fill-rule="nonzero" fill-opacity="1" transform="matrix(1 0 0 -1.00229 199.657 693.388)"/><path d="M419.171 353.754 395.805 353.754 395.805 360.332 419.171 360.332Z" fill="#332D2B" fill-rule="nonzero" fill-opacity="1" transform="matrix(1 0 0 -1.00229 199.657 693.388)"/><path d="M402.193 358.588 395.805 358.588 395.805 377.715 402.193 377.715Z" fill="#332D2B" fill-rule="nonzero" fill-opacity="1" transform="matrix(1 0 0 -1.00229 199.657 693.388)"/><path d="M516.04 388.519 492.674 388.519 492.674 395.097 516.04 395.097Z" fill="#332D2B" fill-rule="nonzero" fill-opacity="1" transform="matrix(1 0 0 -1.00229 199.657 693.388)"/><path d="M516.04 371.136 492.674 371.136 492.674 377.714 516.04 377.714Z" fill="#332D2B" fill-rule="nonzero" fill-opacity="1" transform="matrix(1 0 0 -1.00229 199.657 693.388)"/><path d="M516.04 353.754 492.674 353.754 492.674 360.332 516.04 360.332Z" fill="#332D2B" fill-rule="nonzero" fill-opacity="1" transform="matrix(1 0 0 -1.00229 199.657 693.388)"/><path d="M499.062 358.588 492.674 358.588 492.674 377.715 499.062 377.715Z" fill="#332D2B" fill-rule="nonzero" fill-opacity="1" transform="matrix(1 0 0 -1.00229 199.657 693.388)"/><path d="M0 0 1.44468 0 1.44468-4.84084 4.42197-4.84084 4.42197-6.0832 1.44468-6.0832 1.44468-11.3526 0-11.3526ZM-9.59627-18.6547 0.0930246-18.6547 0.0930246-13.7041-9.59627-13.7041ZM-10.6053-19.8539C-10.9266-19.8539-11.0409-19.74-11.0409-19.4208L-11.0409-12.933C-11.0409-12.6188-10.9266-12.5044-10.6053-12.5044L1.07817-12.5044C1.39944-12.5044 1.51381-12.6188 1.51381-12.933L1.51381-19.4208C1.51381-19.74 1.39944-19.8539 1.07817-19.8539ZM-4.51245-0.970912C-4.19119-0.970912-4.07681-1.10918-4.07681-1.40401-4.67207-6.1264-7.69715-9.70099-13.3996-11.6906L-14.4991-10.5814C-9.25366-8.95374-6.3211-6.17368-5.63332-2.19446L-13.2613-2.19446-13.2613-0.970912Z" fill="#332D2B" fill-rule="nonzero" fill-opacity="1" transform="matrix(1 0 0 -1.00229 418.585 347.566)"/><path d="M0 0 1.44468 0 1.44468-5.28817 4.42197-5.28817 4.42197-6.53561 1.44468-6.53561 1.44468-12.0286 0-12.0286ZM1.00904-13.1139C1.3303-13.1139 1.44468-13.2471 1.44468-13.5424L1.44468-20.2158 0.0238916-20.2158 0.0238916-14.3324-11.6357-14.3324-11.6357-13.1139ZM-4.51245-0.970912C-4.19119-0.970912-4.07681-1.10918-4.07681-1.40401-4.76459-6.24027-7.81101-9.72488-13.4687-11.6194L-14.4991-10.5814C-9.2989-9.00102-6.36634-6.21638-5.63332-2.19446L-13.2613-2.19446-13.2613-0.970912Z" fill="#332D2B" fill-rule="nonzero" fill-opacity="1" transform="matrix(1 0 0 -1.00229 438.529 347.566)"/><path d="M0 0C0-1.35674 2.31596-2.4893 5.54538-2.4893 8.75143-2.4893 11.0887-1.35674 11.0887 0 11.0887 1.44722 8.75143 2.46591 5.54538 2.46591 2.31596 2.46591 0 1.44722 0 0M10.8361-11.7145 10.8361-9.42954-1.16865-9.42954-1.16865-8.27766 11.8904-8.27766C12.2116-8.27766 12.326-8.38695 12.326-8.70618L12.326-12.4139C12.326-12.7281 12.2116-12.8425 11.8904-12.8425L0.297374-12.8425 0.297374-15.2606 12.783-15.2606 12.783-16.3937-0.733013-16.3937C-1.05174-16.3937-1.16865-16.2793-1.16865-15.9606L-1.16865-12.143C-1.16865-11.8238-1.05174-11.7145-0.733013-11.7145ZM12.5548 0.0238916C12.5548-2.19446 9.73657-3.5512 5.54538-3.5512 1.3303-3.5512-1.46603-2.19446-1.46603 0.0238916-1.46603 2.19446 1.3303 3.57458 5.54538 3.57458 9.73657 3.57458 12.5548 2.19446 12.5548 0.0238916M-3.75555-5.17888 14.8921-5.17888 14.8921-6.35465-3.75555-6.35465Z" fill="#332D2B" fill-rule="nonzero" fill-opacity="1" transform="matrix(1 0 0 -1.00229 447.481 351.011)"/><path d="M0 0C0-1.38063 2.29206-2.41813 5.61197-2.41813 8.93442-2.41813 11.2026-1.39944 11.2026 0 11.2026 1.51381 8.93442 2.48472 5.61197 2.48472 2.29206 2.48472 0 1.5377 0 0M12.7378 0C12.7378-2.0135 10.2413-3.57001 5.61197-3.57001 1.00904-3.57001-1.51127-2.0135-1.51127 0-1.51127 2.03739 1.00904 3.64117 5.61197 3.64117 10.2413 3.64117 12.7378 2.03739 12.7378 0M12.3926 16.4364 12.3926 15.2845 0.252132 15.2845 0.252132 13.09 12.3713 13.09 12.3713 11.962 0.252132 11.962 0.252132 9.74369 12.5761 9.74369 12.5761 8.59181 6.34499 8.59181 6.34499 6.28348 14.9368 6.28348 14.9368 5.08839-3.71031 5.08839-3.71031 6.28348 4.83372 6.28348 4.83372 8.59181-0.687772 8.59181C-1.007 8.59181-1.12087 8.73008-1.12087 9.02033L-1.12087 16.0078C-1.12087 16.3032-1.007 16.4364-0.687772 16.4364Z" fill="#332D2B" fill-rule="nonzero" fill-opacity="1" transform="matrix(1 0 0 -1.00229 474.013 364.517)"/><path d="M0 0 1.44213 0 1.44213-6.193 4.39808-6.193 4.39808-7.43993 1.44213-7.43993 1.44213-14.9226 0-14.9226ZM-10.6531-19.6495C-10.9744-19.6495-11.0882-19.5352-11.0882-19.2164L-11.0882-13.9039-9.64355-13.9039-9.64355-18.426 2.15176-18.426 2.15176-19.6495ZM-11.4547 0-5.43101 0-5.43101-1.19966-11.4547-1.19966ZM-8.38492-6.75928C-10.4935-6.75928-11.8217-7.55431-11.8217-9.00102-11.8217-10.4482-10.4935-11.2382-8.38492-11.2382-6.2784-11.2382-4.94809-10.4482-4.94809-9.00102-4.94809-7.55431-6.2784-6.75928-8.38492-6.75928M-8.38492-5.58351C-5.24547-5.58351-3.46072-6.89703-3.46072-9.00102-3.46072-11.1004-5.24547-12.4139-8.38492-12.4139-11.5239-12.4139-13.3091-11.1004-13.3091-9.00102-13.3091-6.89703-11.5239-5.58351-8.38492-5.58351M-14.2038-3.051-2.5442-3.051-2.5442-4.25066-14.2038-4.25066Z" fill="#332D2B" fill-rule="nonzero" fill-opacity="1" transform="matrix(1 0 0 -1.00229 505.232 347.566)"/><path d="M332.633 345.057 334.076 345.057 334.076 334.584 332.633 334.584ZM322.554 328.753 322.554 326.378 334.58 326.378 334.58 325.203 321.5 325.203C321.178 325.203 321.064 325.317 321.064 325.636L321.064 329.544C321.064 329.863 321.178 329.977 321.5 329.977L332.564 329.977 332.564 332.305 321.064 332.305 321.064 333.523 333.64 333.523C333.962 333.523 334.076 333.414 334.076 333.095L334.076 329.182C334.076 328.868 333.962 328.753 333.64 328.753ZM319.574 340.059C319.574 338.069 320.79 336.531 323.149 336.531 325.486 336.531 326.745 338.069 326.745 340.059 326.745 342.048 325.486 343.586 323.149 343.586 320.79 343.586 319.574 342.048 319.574 340.059M328.211 340.035C328.211 337.231 326.195 335.308 323.149 335.308 320.057 335.308 318.108 337.393 318.108 340.035 318.108 342.796 320.079 344.809 323.173 344.809 326.219 344.809 328.211 342.819 328.211 340.035" fill="#332D2B" fill-rule="nonzero" fill-opacity="1" transform="matrix(1 0 0 -1.00229 199.657 693.388)"/><path d="M0 0 1.42079 0 1.42079-4.88354 4.39808-4.88354 4.39808-6.10709 1.42079-6.10709 1.42079-12.2762 0-12.2762ZM-10.0339-16.4842C-10.0339-18.245-7.7185-19.2637-4.80983-19.2637-1.80864-19.2637 0.411748-18.245 0.411748-16.4842 0.411748-14.6516-1.7634-13.7234-4.80983-13.7234-7.74239-13.7234-10.0339-14.6516-10.0339-16.4842M1.92556-16.4842C1.92556-18.7686-0.480881-20.4395-4.80983-20.4395-9.0488-20.4395-11.5452-18.7686-11.5452-16.4842-11.5452-14.1992-9.0488-12.5476-4.80983-12.5476-0.480881-12.5476 1.92556-14.1992 1.92556-16.4842M-9.37006-0.542897-7.88015-0.542897-7.88015-2.41813C-7.88015-5.85496-5.3146-8.11601-2.26817-9.2013L-3.29856-10.3339C-5.33849-9.33906-7.48975-7.95894-8.58927-5.72177-9.41531-8.04942-11.2478-9.74369-13.8586-10.9911L-15.1178-9.97244C-11.5452-8.43474-9.37006-6.01203-9.37006-2.37543Z" fill="#332D2B" fill-rule="nonzero" fill-opacity="1" transform="matrix(1 0 0 -1.00229 551.297 347.566)"/><path d="M0 0C0.318723 0 0.433098-0.138266 0.433098-0.428523L0.433098-6.67337-1.03293-6.67337-1.03293-1.19966-13.333-1.19966-13.333 0ZM-7.10189 13.5186-5.56927 13.5186-5.56927 12.8186C-5.56927 9.76758-1.5804 7.63971 1.94691 6.91635L0.913979 5.80717C-1.99469 6.51172-5.01723 8.1399-6.30229 10.5341-7.67783 8.1826-10.2434 6.6449-13.5613 5.80717L-14.6155 6.91635C-10.5626 7.82067-7.10189 9.83417-7.10189 12.8186ZM-7.0353 6.73538-5.61197 6.73538-5.61197 3.45563 2.99864 3.45563 2.99864 2.26106-15.6464 2.26106-15.6464 3.45563-7.0353 3.45563Z" fill="#332D2B" fill-rule="nonzero" fill-opacity="1" transform="matrix(1 0 0 -1.00229 578.998 361.139)"/><path d="M399.286 345.033 400.752 345.033 400.752 324.955 399.286 324.955ZM387.214 339.426C387.214 337.393 388.495 335.741 390.88 335.741 393.26 335.741 394.612 337.393 394.612 339.426 394.612 341.458 393.26 343.043 390.88 343.043 388.495 343.043 387.214 341.458 387.214 339.426M396.078 339.402C396.078 336.531 393.974 334.518 390.88 334.518 387.743 334.518 385.701 336.688 385.701 339.402 385.701 342.205 387.762 344.309 390.903 344.309 393.993 344.309 396.078 342.229 396.078 339.402M384.487 330.948 390.651 330.991C392.208 331.014 396.239 331.286 398.624 331.624L398.624 330.382C395.506 329.929 391.337 329.682 386.8 329.682L384.487 329.682Z" fill="#332D2B" fill-rule="nonzero" fill-opacity="1" transform="matrix(1 0 0 -1.00229 199.657 693.388)"/><path d="M0 0 1.46603 0 1.46603-7.25897 4.19373-7.25897 4.19373 0.33804 5.65976 0.33804 5.65976-19.74 4.19373-19.74 4.19373-8.56792 1.46603-8.56792 1.46603-18.7925 0-18.7925ZM-7.078-0.632872-5.61197-0.632872-5.61197-3.91262C-5.61197-8.86326-4.05089-11.962-1.07563-13.6802L-2.24174-14.7182C-4.39808-13.1851-5.79294-11.1955-6.41158-8.74888-7.05462-11.443-8.58723-13.728-10.9718-15.5798L-12.3474-14.6516C-8.63451-12.0998-7.078-8.56792-7.078-3.39413Z" fill="#332D2B" fill-rule="nonzero" fill-opacity="1" transform="matrix(1 0 0 -1.00229 621.672 347.905)"/><path d="M0 0 0-3.70319 12.6-3.70319 12.6-4.88354 6.02626-4.88354 6.02626-8.94866 14.7086-8.94866 14.7086-10.1722-4.03157-10.1722-4.03157-8.94866 4.60751-8.94866 4.60751-4.88354-0.985145-4.88354C-1.30438-4.86015-1.41824-4.72189-1.41824-4.42705L-1.41824 0.771138C-1.41824 1.06648-1.30438 1.19966-0.985145 1.18034L10.3339 1.18034 10.3339 4.9791-1.48534 4.9791-1.48534 6.14979 11.3383 6.14979C11.6621 6.14979 11.7765 6.01661 11.7765 5.72177L11.7765 0.433098C11.7765 0.138266 11.6621 0 11.3383 0Z" fill="#332D2B" fill-rule="nonzero" fill-opacity="1" transform="matrix(1 0 0 -1.00229 633.805 354.775)"/><path d="M0 0C0-1.71816 2.31341-2.89393 5.54538-2.89393 8.75346-2.89393 11.0862-1.71816 11.0862 0 11.0862 1.76594 8.75346 3.0083 5.54538 3.0083 2.31341 3.0083 0 1.76594 0 0M-0.733013-15.6464C-1.05174-15.6464-1.16611-15.5321-1.16611-15.2128L-1.16611-9.81028 0.185541-9.81028 0.185541-14.4229 13.0804-14.4229 13.0804-15.6464ZM12.5522 0.0665914C12.5522-2.48472 9.73403-3.99853 5.54538-3.99853 1.32827-3.99853-1.46603-2.48472-1.46603 0.0665914-1.46603 2.5991 1.32827 4.14137 5.54538 4.14137 9.73403 4.14137 12.5522 2.5991 12.5522 0.0665914M-3.75555-6.193 14.8895-6.193 14.8895-7.39215 6.53053-7.39215 6.53053-12.0952 5.10771-12.0952 5.10771-7.39215-3.75555-7.39215Z" fill="#332D2B" fill-rule="nonzero" fill-opacity="1" transform="matrix(1 0 0 -1.00229 653.526 351.578)"/><path d="M487.408 337.66 492.13 337.66 492.13 340.649 487.408 340.649ZM481.063 325.384C480.744 325.384 480.63 325.497 480.63 325.817L480.63 331.714 482.096 331.714 482.096 326.607 494.12 326.607 494.12 325.384ZM479.759 335.198 486.056 335.198 486.056 339.244 479.759 339.244ZM478.383 344.285 479.759 344.285 479.759 340.421 486.056 340.421 486.056 344.285 487.408 344.285 487.408 341.844 492.13 341.844 492.13 345.033 493.596 345.033 493.596 330.158 492.13 330.158 492.13 336.465 487.408 336.465 487.408 334.451C487.408 334.113 487.318 334.023 486.975 334.023L478.797 334.023C478.455 334.023 478.383 334.113 478.383 334.451Z" fill="#332D2B" fill-rule="nonzero" fill-opacity="1" transform="matrix(1 0 0 -1.00229 199.657 693.388)"/><path d="M0 0 1.44213 0 1.44213-8.59181 4.48856-8.59181 4.48856-9.88195 1.44213-9.88195 1.44213-20.1014 0-20.1014ZM-10.953-0.404631-5.17888-0.404631-5.17888-1.65157-10.953-1.65157ZM-7.9015-7.09732C-9.96735-7.09732-11.1574-7.98232-11.1574-9.26789-11.1574-10.4482-9.96735-11.3053-7.9015-11.3053-5.82141-11.3053-4.65072-10.4482-4.65072-9.26789-4.65072-7.98232-5.82141-7.09732-7.9015-7.09732M-13.5851-3.46072-2.42779-3.46072-2.42779-4.67919-13.5851-4.67919ZM-7.9015-5.90223C-4.85507-5.90223-3.25128-7.30167-3.25128-9.2013-3.25128-10.9433-4.60294-12.2762-7.19237-12.4805L-7.19237-14.9703C-5.22158-14.8987-2.54165-14.7416-0.666422-14.5134L-0.666422-15.7369C-4.56024-16.2127-7.97317-16.2793-12.2808-16.2793L-14.523-16.2793-14.523-14.9892-8.63451-14.9892-8.63451-12.4805C-11.2006-12.2569-12.5522-10.9433-12.5522-9.2013-12.5522-7.30167-10.953-5.90223-7.9015-5.90223" fill="#332D2B" fill-rule="nonzero" fill-opacity="1" transform="matrix(1 0 0 -1.00229 711.208 347.566)"/></g></g></g></svg>